<svg xmlns="http://www.w3.org/2000/svg" viewBox="0 0 212.3 245.14"><defs><style>.cls-1{fill:#fff;}.cls-2{fill:#eee8be;}.cls-3{fill:#dbd2a5;}.cls-4{fill:#bcb491;}.cls-5,.cls-6,.cls-8{fill:none;}.cls-5,.cls-8{stroke:#fff;stroke-linecap:round;}.cls-5,.cls-6,.cls-7,.cls-8{stroke-miterlimit:10;}.cls-5,.cls-6,.cls-7{stroke-width:3px;}.cls-6{stroke:#f4efd4;}.cls-7{fill:#c0d15d;stroke:#f4d68c;}.cls-8{stroke-width:7px;}.cls-9{fill:#f5d168;}.cls-10{fill:#beedc5;}</style></defs><title>Asset 1</title><g id="Layer_2" data-name="Layer 2"><g id="Layer_1-2" data-name="Layer 1"><path class="cls-1" d="M189.29,72.49l-81.5-47a3.41,3.41,0,0,0-3.41,0L22.88,72.49a3.41,3.41,0,0,0-1.71,3l.14,94.2A3.44,3.44,0,0,0,23,172.6l81.5,47.06a3.4,3.4,0,0,0,3.42,0l81.36-47.13a3.43,3.43,0,0,0,1.7-3V75.45A3.41,3.41,0,0,0,189.29,72.49Z"/><polygon class="cls-2" points="106.15 122.57 185.33 76.86 106.15 31.14 26.97 76.86 106.15 122.57"/><polygon class="cls-3" points="106.15 214 106.15 122.57 26.97 76.86 26.97 168.29 106.15 214"/><polygon class="cls-4" points="185.33 168.29 185.33 76.86 106.15 122.57 106.15 214 185.33 168.29"/><line class="cls-5" x1="186.03" y1="105.36" x2="106.08" y2="151.52"/><path class="cls-6" d="M106.55,112,169.8,75.48a.8.8,0,0,0,0-1.38L106.55,37.59a.77.77,0,0,0-.8,0L42.5,74.1a.8.8,0,0,0,0,1.38L105.75,112A.81.81,0,0,0,106.55,112Z"/><line class="cls-5" x1="26.47" y1="105.43" x2="105.03" y2="150.78"/><path class="cls-7" d="M39.4,83.82,55,93.24v46.24a.58.58,0,0,1-1.08.29L47.19,128l-6.91,4.15a.58.58,0,0,1-.88-.5Z"/><line class="cls-8" x1="185.33" y1="76.86" x2="106.15" y2="122.57"/><line class="cls-8" x1="106.15" y1="214" x2="106.15" y2="122.57"/><line class="cls-8" x1="26.97" y1="76.86" x2="106.15" y2="122.57"/><polygon class="cls-4" points="106.15 0 106.15 15.95 146.06 39.11 146.06 23.16 106.15 0"/><polygon class="cls-4" points="106.15 0 0 61.28 13.92 69.3 106.15 16.05 106.15 0"/><polygon class="cls-2" points="0 183.86 13.92 175.64 13.92 69.3 0 61.28 0 183.86"/><polygon class="cls-2" points="106.08 228.85 106.15 245.14 0 183.86 13.92 175.64 106.08 228.85"/><polygon class="cls-4" points="212.3 183.86 198.43 175.83 106.08 228.85 106.15 245.14 212.3 183.86"/><polygon class="cls-4" points="212.3 135.83 198.43 127.86 198.43 175.83 212.3 183.86 212.3 135.83"/><polygon class="cls-9" points="198.43 69.22 198.43 53.28 212.3 61.28 198.43 69.22"/><polygon class="cls-9" points="212.3 61.25 212.3 77.2 198.43 69.19 212.3 61.25"/><polygon class="cls-10" points="191.42 49.31 191.42 65.26 148.78 40.6 148.78 24.65 191.42 49.31"/><polygon class="cls-10" points="212.3 132.09 198.43 124.11 198.43 76.36 212.3 84.33 212.3 132.09"/></g></g></svg>